<svg enable-background="new 0 0 70.87 70.87" height="70.87" viewBox="0 0 70.87 70.87" width="70.87" xmlns="http://www.w3.org/2000/svg"><path d="m58.37 60.728c1.23-16.73 5.525-32.633 12.297-47.122v-.001c.129-.305.201-.641.201-.992v-10.059c0-1.409-1.143-2.552-2.553-2.552h-25.263c-1.02 0-1.891.602-2.299 1.465-.023.05-.047.101-.07.151-.736 1.6-1.445 3.212-2.115 4.826-1.137 2.706-2.191 5.45-3.17 8.221-.993-2.783-2.05-5.515-3.184-8.221-.686-1.637-1.408-3.267-2.144-4.871-.006-.011-.011-.022-.016-.034-.393-.903-1.291-1.537-2.34-1.537h-25.161c-1.408 0-2.551 1.143-2.551 2.552v10.088c0 .348.07.678.196.98.006.011.011.022.016.033 6.784 14.514 11.083 30.438 12.299 47.215.015.115.015.219.015.336 0 1.777-1.443 3.221-3.222 3.221-1.61 0-2.938-1.174-3.183-2.719-.025-.168-.038-.541-.038-.555-.679-9.121-2.343-19.816-4.841-28.308l-.027-.079c-.101-.219-.318-.37-.573-.372h-.009c-.35.003-.633.287-.633.637v35.286c0 1.408 1.143 2.551 2.551 2.551h14.195c1.393 0 2.521-1.117 2.547-2.504-.001-.039-.001-.078-.002-.115-.023-1.277-.06-2.555-.118-3.822-.85-18.928-5.425-36.903-13.026-53.202l-.129-.284c-.168-.387-.257-.812-.257-1.263 0-1.791 1.456-3.234 3.233-3.234h.013c1.225 0 2.358.824 2.899 1.829 8.001 17.137 12.872 36.22 13.709 56.153.059 1.283.096 2.568.118 3.857.001.027.001.053.002.08.025 1.387 1.153 2.504 2.546 2.504h14.294c1.381 0 2.52-1.098 2.564-2.469.023-1.326.053-2.65.111-3.973.839-19.932 5.696-39.015 13.698-56.152.555-1.005 1.674-1.829 2.91-1.829h.014c1.791.014 3.223 1.443 3.223 3.234 0 .567-.131 1.082-.375 1.546-7.602 16.299-12.176 34.275-13.026 53.203-.059 1.281-.096 2.57-.119 3.861 0 .016-.002.033-.002.049.012 1.4 1.148 2.531 2.549 2.531h14.191c1.41 0 2.553-1.143 2.553-2.551v-35.286c0-.083-.018-.163-.047-.237-.004-.01-.008-.019-.014-.027-.1-.219-.318-.37-.572-.372h-.01c-.244.002-.451.147-.557.352-.02.062-.037.125-.057.188-2.529 8.579-4.186 19.294-4.852 28.517v.115c-.18 1.611-1.545 2.861-3.207 2.861-1.779 0-3.209-1.43-3.223-3.209v-.012c.002-.065.027-.388.041-.479zm-29.532-22.006c-2.035-9.626-4.966-18.916-8.716-27.78-.167-.387-.252-.812-.252-1.263 0-1.791 1.431-3.221 3.222-3.234h.014c1.34 0 2.486.812 2.976 1.972 2.294 5.438 4.304 11.017 5.979 16.737-1.263 4.457-2.346 8.992-3.223 13.568zm21.839-27.82c-7.18 17.006-10.723 33.923-11.737 50.638-.168 1.623-1.547 2.887-3.208 2.887-1.778 0-3.222-1.443-3.222-3.221 0-.129.013-.258.025-.387.783-15.836 5.064-35.789 12.273-52.48.516-1.07 1.654-1.895 2.918-1.895h.025c1.752.014 3.182 1.456 3.182 3.209.002.438-.088.864-.256 1.249z" fill="#c90835"/></svg>